<svg xmlns="http://www.w3.org/2000/svg" viewBox="0 0 420 280" width="420" height="280"><defs><linearGradient id="g" x1="0" y1="0" x2="0" y2="1"><stop offset="0" stop-color="#2A303B"/><stop offset="1" stop-color="#191C23"/></linearGradient></defs><rect width="420" height="280" fill="url(#g)"/><rect y="248" width="420" height="32" fill="#13161B"/><line x1="0" y1="248" x2="420" y2="248" stroke="#39404D" stroke-width="1.5"/><g transform="translate(241.2,248) scale(1.25)"><ellipse cx="-20.4" cy="2" rx="82.5" ry="5" fill="#000" opacity=".28"/><rect x="-93.8" y="-4" width="111.8" height="4" rx="2" fill="#33405A"/><line x1="-3.7" y1="-49.5" x2="32.7" y2="-23.1" stroke="#E7EBF1" stroke-width="18" stroke-linecap="round"/><line x1="32.7" y1="-23.1" x2="-8.7" y2="-8" stroke="#E7EBF1" stroke-width="13" stroke-linecap="round"/><line x1="-8.7" y1="-8" x2="-16.5" y2="-3.5" stroke="#E7EBF1" stroke-width="7" stroke-linecap="round"/><line x1="3.7" y1="-66" x2="39.1" y2="-38.3" stroke="#E7EBF1" stroke-width="18" stroke-linecap="round"/><line x1="39.1" y1="-38.3" x2="-2.3" y2="-23.2" stroke="#E7EBF1" stroke-width="13" stroke-linecap="round"/><line x1="-2.3" y1="-23.2" x2="-10.1" y2="-18.7" stroke="#E7EBF1" stroke-width="7" stroke-linecap="round"/><path d="M-62.7,-69.3 L-50.5,-96.7 L3.7,-66 L-3.7,-49.5 Z" fill="#C4EE36" stroke="#C4EE36" stroke-width="14" stroke-linejoin="round"/><line x1="-56.6" y1="-83" x2="-63.9" y2="-86.2" stroke="#E7EBF1" stroke-width="11" stroke-linecap="round"/><line x1="-62.7" y1="-69.3" x2="-62.7" y2="-34.3" stroke="#E7EBF1" stroke-width="12" stroke-linecap="round"/><line x1="-62.7" y1="-34.3" x2="-31.7" y2="-34.3" stroke="#E7EBF1" stroke-width="10" stroke-linecap="round"/><line x1="-31.7" y1="-34.3" x2="-23.7" y2="-34.3" stroke="#E7EBF1" stroke-width="9" stroke-linecap="round"/><line x1="-50.5" y1="-96.7" x2="-33" y2="-66.4" stroke="#E7EBF1" stroke-width="12" stroke-linecap="round"/><line x1="-33" y1="-66.4" x2="-3.9" y2="-55.8" stroke="#E7EBF1" stroke-width="10" stroke-linecap="round"/><line x1="-3.9" y1="-55.8" x2="3.6" y2="-53" stroke="#E7EBF1" stroke-width="9" stroke-linecap="round"/><circle cx="-75.8" cy="-91.5" r="13" fill="#E7EBF1"/><path d="M0,-45.8 Q0,-58.8 0,-71.8" fill="none" stroke="#C4EE36" stroke-width="3" stroke-linecap="round" opacity=".95"/><path d="M3.9,-63.7 L0,-71.8 L-3.9,-63.7" fill="none" stroke="#C4EE36" stroke-width="3" stroke-linecap="round" stroke-linejoin="round"/></g></svg>