<svg xmlns="http://www.w3.org/2000/svg" viewBox="0 0 420 280" width="420" height="280"><defs><linearGradient id="g" x1="0" y1="0" x2="0" y2="1"><stop offset="0" stop-color="#2A303B"/><stop offset="1" stop-color="#191C23"/></linearGradient></defs><rect width="420" height="280" fill="url(#g)"/><rect y="248" width="420" height="32" fill="#13161B"/><line x1="0" y1="248" x2="420" y2="248" stroke="#39404D" stroke-width="1.5"/><g transform="translate(241.2,248) scale(1.25)"><ellipse cx="-22.5" cy="2" rx="87.2" ry="5" fill="#000" opacity=".28"/><rect x="-100.6" y="-4" width="118.6" height="4" rx="2" fill="#33405A"/><line x1="-0.6" y1="-45.4" x2="41.7" y2="-30" stroke="#E7EBF1" stroke-width="18" stroke-linecap="round"/><line x1="41.7" y1="-30" x2="3.5" y2="-8" stroke="#E7EBF1" stroke-width="13" stroke-linecap="round"/><line x1="3.5" y1="-8" x2="-4.3" y2="-3.5" stroke="#E7EBF1" stroke-width="7" stroke-linecap="round"/><line x1="0.6" y1="-63.4" x2="41.7" y2="-45.1" stroke="#E7EBF1" stroke-width="18" stroke-linecap="round"/><line x1="41.7" y1="-45.1" x2="3.5" y2="-23" stroke="#E7EBF1" stroke-width="13" stroke-linecap="round"/><line x1="3.5" y1="-23" x2="-4.2" y2="-18.5" stroke="#E7EBF1" stroke-width="7" stroke-linecap="round"/><path d="M-62.9,-43.8 L-60.8,-73.7 L0.6,-63.4 L-0.6,-45.4 Z" fill="#C4EE36" stroke="#C4EE36" stroke-width="14" stroke-linejoin="round"/><line x1="-61.8" y1="-58.7" x2="-69.8" y2="-59.9" stroke="#E7EBF1" stroke-width="11" stroke-linecap="round"/><line x1="-62.9" y1="-43.8" x2="-56.8" y2="-9.3" stroke="#E7EBF1" stroke-width="12" stroke-linecap="round"/><line x1="-56.8" y1="-9.3" x2="-25.8" y2="-9.3" stroke="#E7EBF1" stroke-width="10" stroke-linecap="round"/><line x1="-25.8" y1="-9.3" x2="-17.8" y2="-9.3" stroke="#E7EBF1" stroke-width="9" stroke-linecap="round"/><line x1="-60.8" y1="-73.7" x2="-43.3" y2="-43.4" stroke="#E7EBF1" stroke-width="12" stroke-linecap="round"/><line x1="-43.3" y1="-43.4" x2="-14.2" y2="-32.8" stroke="#E7EBF1" stroke-width="10" stroke-linecap="round"/><line x1="-14.2" y1="-32.8" x2="-6.7" y2="-30.1" stroke="#E7EBF1" stroke-width="9" stroke-linecap="round"/><circle cx="-82.6" cy="-61.7" r="13" fill="#E7EBF1"/></g></svg>