<svg xmlns="http://www.w3.org/2000/svg" viewBox="0 0 420 280" width="420" height="280"><defs><linearGradient id="g" x1="0" y1="0" x2="0" y2="1"><stop offset="0" stop-color="#2A303B"/><stop offset="1" stop-color="#191C23"/></linearGradient></defs><rect width="420" height="280" fill="url(#g)"/><rect y="248" width="420" height="32" fill="#13161B"/><line x1="0" y1="248" x2="420" y2="248" stroke="#39404D" stroke-width="1.5"/><g transform="translate(202,248) scale(1.25)"><ellipse cx="-4" cy="2" rx="105.7" ry="5" fill="#000" opacity=".28"/><rect x="-107.2" y="-4" width="199.9" height="4" rx="2" fill="#33405A"/><line x1="55.8" y1="-87.9" x2="66.6" y2="-54.6" stroke="#7A8496" stroke-width="12" stroke-linecap="round"/><line x1="66.6" y1="-54.6" x2="66.6" y2="-23.6" stroke="#7A8496" stroke-width="10" stroke-linecap="round"/><line x1="66.6" y1="-23.6" x2="74.6" y2="-23.6" stroke="#7A8496" stroke-width="9" stroke-linecap="round"/><line x1="0" y1="-61" x2="-45" y2="-39.2" stroke="#7A8496" stroke-width="18" stroke-linecap="round"/><line x1="-45" y1="-39.2" x2="-89.2" y2="-17.9" stroke="#7A8496" stroke-width="13" stroke-linecap="round"/><line x1="-89.2" y1="-17.9" x2="-82.2" y2="-3.5" stroke="#7A8496" stroke-width="7" stroke-linecap="round"/><line x1="0" y1="-61" x2="55.8" y2="-87.9" stroke="#E7EBF1" stroke-width="28" stroke-linecap="round"/><line x1="55.8" y1="-87.9" x2="63" y2="-91.4" stroke="#E7EBF1" stroke-width="11" stroke-linecap="round"/><line x1="0" y1="-61" x2="-45" y2="-39.2" stroke="#E7EBF1" stroke-width="18" stroke-linecap="round"/><line x1="-45" y1="-39.2" x2="-89.2" y2="-17.9" stroke="#E7EBF1" stroke-width="13" stroke-linecap="round"/><line x1="-89.2" y1="-17.9" x2="-82.2" y2="-3.5" stroke="#E7EBF1" stroke-width="7" stroke-linecap="round"/><line x1="55.8" y1="-87.9" x2="66.6" y2="-54.6" stroke="#C4EE36" stroke-width="12" stroke-linecap="round"/><line x1="66.6" y1="-54.6" x2="66.6" y2="-23.6" stroke="#C4EE36" stroke-width="10" stroke-linecap="round"/><line x1="66.6" y1="-23.6" x2="74.6" y2="-23.6" stroke="#E7EBF1" stroke-width="9" stroke-linecap="round"/><circle cx="74.7" cy="-97" r="13" fill="#E7EBF1"/></g></svg>