<svg xmlns="http://www.w3.org/2000/svg" viewBox="0 0 420 280" width="420" height="280"><defs><linearGradient id="g" x1="0" y1="0" x2="0" y2="1"><stop offset="0" stop-color="#2A303B"/><stop offset="1" stop-color="#191C23"/></linearGradient></defs><rect width="420" height="280" fill="url(#g)"/><rect y="248" width="420" height="32" fill="#13161B"/><line x1="0" y1="248" x2="420" y2="248" stroke="#39404D" stroke-width="1.5"/><g transform="translate(198.2,248) scale(1.25)"><ellipse cx="7.5" cy="2" rx="47.6" ry="5" fill="#000" opacity=".28"/><rect x="-13.3" y="-54" width="40" height="6" rx="2" fill="#6B5A4A"/><line x1="-9.3" y1="-48" x2="-9.3" y2="0" stroke="#6B5A4A" stroke-width="4" stroke-linecap="round"/><line x1="22.7" y1="-48" x2="22.7" y2="0" stroke="#6B5A4A" stroke-width="4" stroke-linecap="round"/><line x1="23.7" y1="-52" x2="23.7" y2="-94" stroke="#6B5A4A" stroke-width="5" stroke-linecap="round"/><line x1="23.7" y1="-92" x2="23.7" y2="-78" stroke="#6B5A4A" stroke-width="9" stroke-linecap="butt"/><line x1="15" y1="-95.1" x2="-17.9" y2="-83.1" stroke="#7A8496" stroke-width="12" stroke-linecap="round"/><line x1="-17.9" y1="-83.1" x2="-7.3" y2="-54" stroke="#7A8496" stroke-width="10" stroke-linecap="round"/><line x1="-7.3" y1="-54" x2="0.7" y2="-54" stroke="#7A8496" stroke-width="9" stroke-linecap="round"/><line x1="0" y1="-34.9" x2="29.4" y2="5.5" stroke="#7A8496" stroke-width="18" stroke-linecap="round"/><line x1="29.4" y1="5.5" x2="-19.6" y2="7.2" stroke="#7A8496" stroke-width="13" stroke-linecap="round"/><line x1="-19.6" y1="7.2" x2="-22.4" y2="23" stroke="#7A8496" stroke-width="7" stroke-linecap="round"/><line x1="0" y1="-34.9" x2="15" y2="-95.1" stroke="#E7EBF1" stroke-width="28" stroke-linecap="round"/><line x1="15" y1="-95.1" x2="16.9" y2="-102.9" stroke="#E7EBF1" stroke-width="11" stroke-linecap="round"/><line x1="0" y1="-34.9" x2="32.1" y2="3.4" stroke="#E7EBF1" stroke-width="18" stroke-linecap="round"/><line x1="32.1" y1="3.4" x2="-16.8" y2="5.1" stroke="#E7EBF1" stroke-width="13" stroke-linecap="round"/><line x1="-16.8" y1="5.1" x2="-19.6" y2="20.8" stroke="#E7EBF1" stroke-width="7" stroke-linecap="round"/><line x1="15" y1="-95.1" x2="-17.9" y2="-83.1" stroke="#C4EE36" stroke-width="12" stroke-linecap="round"/><line x1="-17.9" y1="-83.1" x2="-7.3" y2="-54" stroke="#C4EE36" stroke-width="10" stroke-linecap="round"/><line x1="-7.3" y1="-54" x2="0.7" y2="-54" stroke="#E7EBF1" stroke-width="9" stroke-linecap="round"/><circle cx="20.1" cy="-115.5" r="13" fill="#E7EBF1"/><rect x="-23.3" y="-54" width="40" height="6" rx="2" fill="#6B5A4A"/><line x1="-19.3" y1="-48" x2="-19.3" y2="0" stroke="#6B5A4A" stroke-width="4" stroke-linecap="round"/><line x1="12.7" y1="-48" x2="12.7" y2="0" stroke="#6B5A4A" stroke-width="4" stroke-linecap="round"/><line x1="-20.3" y1="-52" x2="-20.3" y2="-94" stroke="#6B5A4A" stroke-width="5" stroke-linecap="round"/><line x1="-20.3" y1="-92" x2="-20.3" y2="-78" stroke="#6B5A4A" stroke-width="9" stroke-linecap="butt"/><path d="M45,-125.1 Q45,-111.1 45,-97.1" fill="none" stroke="#C4EE36" stroke-width="3" stroke-linecap="round" opacity=".95"/><path d="M41.1,-105.2 L45,-97.1 L48.9,-105.2" fill="none" stroke="#C4EE36" stroke-width="3" stroke-linecap="round" stroke-linejoin="round"/></g></svg>