<svg xmlns="http://www.w3.org/2000/svg" viewBox="0 0 420 280" width="420" height="280"><defs><linearGradient id="g" x1="0" y1="0" x2="0" y2="1"><stop offset="0" stop-color="#2A303B"/><stop offset="1" stop-color="#191C23"/></linearGradient></defs><rect width="420" height="280" fill="url(#g)"/><rect y="248" width="420" height="32" fill="#13161B"/><line x1="0" y1="248" x2="420" y2="248" stroke="#39404D" stroke-width="1.5"/><g transform="translate(181.9,248) scale(1.1613)"><ellipse cx="24.2" cy="2" rx="62.8" ry="5" fill="#000" opacity=".28"/><line x1="0" y1="-167.4" x2="-18.5" y2="-137.7" stroke="#7A8496" stroke-width="12" stroke-linecap="round"/><line x1="-18.5" y1="-137.7" x2="-7.9" y2="-108.6" stroke="#7A8496" stroke-width="10" stroke-linecap="round"/><line x1="-7.9" y1="-108.6" x2="-5.2" y2="-101.1" stroke="#7A8496" stroke-width="9" stroke-linecap="round"/><line x1="0" y1="-105.4" x2="-2.6" y2="-55.5" stroke="#7A8496" stroke-width="18" stroke-linecap="round"/><line x1="-2.6" y1="-55.5" x2="-3.5" y2="-6.5" stroke="#7A8496" stroke-width="13" stroke-linecap="round"/><line x1="-3.5" y1="-6.5" x2="12.5" y2="-6.2" stroke="#7A8496" stroke-width="7" stroke-linecap="round"/><line x1="0" y1="-105.4" x2="0" y2="-167.4" stroke="#E7EBF1" stroke-width="28" stroke-linecap="round"/><line x1="0" y1="-167.4" x2="0" y2="-175.4" stroke="#E7EBF1" stroke-width="11" stroke-linecap="round"/><line x1="0" y1="-105.4" x2="49.5" y2="-98.1" stroke="#E7EBF1" stroke-width="18" stroke-linecap="round"/><line x1="49.5" y1="-98.1" x2="53.6" y2="-49.3" stroke="#E7EBF1" stroke-width="13" stroke-linecap="round"/><line x1="53.6" y1="-49.3" x2="69.5" y2="-50.6" stroke="#E7EBF1" stroke-width="7" stroke-linecap="round"/><line x1="0" y1="-167.4" x2="16.4" y2="-136.5" stroke="#E7EBF1" stroke-width="12" stroke-linecap="round"/><line x1="16.4" y1="-136.5" x2="46.5" y2="-144" stroke="#E7EBF1" stroke-width="10" stroke-linecap="round"/><line x1="46.5" y1="-144" x2="54.3" y2="-146" stroke="#E7EBF1" stroke-width="9" stroke-linecap="round"/><circle cx="0" cy="-188.4" r="13" fill="#E7EBF1"/><path d="M49.5,-58.1 Q49.5,-73.1 49.5,-88.1" fill="none" stroke="#C4EE36" stroke-width="3" stroke-linecap="round" opacity=".95"/><path d="M53.4,-80 L49.5,-88.1 L45.5,-80" fill="none" stroke="#C4EE36" stroke-width="3" stroke-linecap="round" stroke-linejoin="round"/></g></svg>