<svg xmlns="http://www.w3.org/2000/svg" viewBox="0 0 420 280" width="420" height="280"><defs><linearGradient id="g" x1="0" y1="0" x2="0" y2="1"><stop offset="0" stop-color="#2A303B"/><stop offset="1" stop-color="#191C23"/></linearGradient></defs><rect width="420" height="280" fill="url(#g)"/><rect y="248" width="420" height="32" fill="#13161B"/><line x1="0" y1="248" x2="420" y2="248" stroke="#39404D" stroke-width="1.5"/><g transform="translate(183,248) scale(1.1034000000000002)"><ellipse cx="24.4" cy="2" rx="63" ry="5" fill="#000" opacity=".28"/><line x1="0" y1="-178.1" x2="16.4" y2="-147.2" stroke="#7A8496" stroke-width="12" stroke-linecap="round"/><line x1="16.4" y1="-147.2" x2="46.5" y2="-154.7" stroke="#7A8496" stroke-width="10" stroke-linecap="round"/><line x1="46.5" y1="-154.7" x2="54.3" y2="-156.6" stroke="#7A8496" stroke-width="9" stroke-linecap="round"/><line x1="0" y1="-116.1" x2="48.9" y2="-126.5" stroke="#7A8496" stroke-width="18" stroke-linecap="round"/><line x1="48.9" y1="-126.5" x2="54" y2="-77.7" stroke="#7A8496" stroke-width="13" stroke-linecap="round"/><line x1="54" y1="-77.7" x2="69.9" y2="-79.4" stroke="#7A8496" stroke-width="7" stroke-linecap="round"/><line x1="0" y1="-116.1" x2="0" y2="-178.1" stroke="#E7EBF1" stroke-width="28" stroke-linecap="round"/><line x1="0" y1="-178.1" x2="0" y2="-186.1" stroke="#E7EBF1" stroke-width="11" stroke-linecap="round"/><line x1="0" y1="-116.1" x2="0" y2="-66.1" stroke="#C4EE36" stroke-width="18" stroke-linecap="round"/><line x1="0" y1="-66.1" x2="0" y2="-17.1" stroke="#E7EBF1" stroke-width="13" stroke-linecap="round"/><line x1="0" y1="-17.1" x2="8.5" y2="-3.5" stroke="#E7EBF1" stroke-width="7" stroke-linecap="round"/><line x1="0" y1="-178.1" x2="-18.5" y2="-148.4" stroke="#E7EBF1" stroke-width="12" stroke-linecap="round"/><line x1="-18.5" y1="-148.4" x2="-7.9" y2="-119.3" stroke="#E7EBF1" stroke-width="10" stroke-linecap="round"/><line x1="-7.9" y1="-119.3" x2="-5.2" y2="-111.7" stroke="#E7EBF1" stroke-width="9" stroke-linecap="round"/><circle cx="0" cy="-199.1" r="13" fill="#E7EBF1"/><path d="M48.9,-80.5 Q48.9,-97.5 48.9,-114.5" fill="none" stroke="#C4EE36" stroke-width="3" stroke-linecap="round" opacity=".95"/><path d="M52.8,-106.4 L48.9,-114.5 L45,-106.4" fill="none" stroke="#C4EE36" stroke-width="3" stroke-linecap="round" stroke-linejoin="round"/></g></svg>