<svg xmlns="http://www.w3.org/2000/svg" viewBox="0 0 420 280" width="420" height="280"><defs><linearGradient id="g" x1="0" y1="0" x2="0" y2="1"><stop offset="0" stop-color="#2A303B"/><stop offset="1" stop-color="#191C23"/></linearGradient></defs><rect width="420" height="280" fill="url(#g)"/><rect y="248" width="420" height="32" fill="#13161B"/><line x1="0" y1="248" x2="420" y2="248" stroke="#39404D" stroke-width="1.5"/><g transform="translate(216.2,248) scale(0.8573999999999999)"><ellipse cx="-6" cy="2" rx="34" ry="5" fill="#000" opacity=".28"/><line x1="0" y1="-196.4" x2="-9.6" y2="-230" stroke="#7A8496" stroke-width="12" stroke-linecap="round"/><line x1="-9.6" y1="-230" x2="-15" y2="-260.5" stroke="#7A8496" stroke-width="10" stroke-linecap="round"/><line x1="-15" y1="-260.5" x2="-16.4" y2="-268.4" stroke="#7A8496" stroke-width="9" stroke-linecap="round"/><line x1="0" y1="-134.4" x2="-2.6" y2="-84.4" stroke="#7A8496" stroke-width="18" stroke-linecap="round"/><line x1="-2.6" y1="-84.4" x2="-3.5" y2="-35.4" stroke="#7A8496" stroke-width="13" stroke-linecap="round"/><line x1="-3.5" y1="-35.4" x2="4.5" y2="-21.6" stroke="#7A8496" stroke-width="7" stroke-linecap="round"/><line x1="0" y1="-134.4" x2="0" y2="-196.4" stroke="#E7EBF1" stroke-width="28" stroke-linecap="round"/><line x1="0" y1="-196.4" x2="0" y2="-204.4" stroke="#E7EBF1" stroke-width="11" stroke-linecap="round"/><line x1="0" y1="-134.4" x2="0" y2="-84.4" stroke="#C4EE36" stroke-width="18" stroke-linecap="round"/><line x1="0" y1="-84.4" x2="0" y2="-35.4" stroke="#E7EBF1" stroke-width="13" stroke-linecap="round"/><line x1="0" y1="-35.4" x2="8" y2="-21.5" stroke="#E7EBF1" stroke-width="7" stroke-linecap="round"/><line x1="0" y1="-196.4" x2="-12" y2="-229.2" stroke="#C4EE36" stroke-width="12" stroke-linecap="round"/><line x1="-12" y1="-229.2" x2="-19.5" y2="-259.3" stroke="#E7EBF1" stroke-width="10" stroke-linecap="round"/><line x1="-19.5" y1="-259.3" x2="-21.4" y2="-267.1" stroke="#E7EBF1" stroke-width="9" stroke-linecap="round"/><circle cx="0" cy="-217.4" r="13" fill="#E7EBF1"/><path d="M0,-1.4 Q0,-15.4 0,-29.4" fill="none" stroke="#C4EE36" stroke-width="3" stroke-linecap="round" opacity=".95"/><path d="M3.9,-21.3 L0,-29.4 L-3.9,-21.3" fill="none" stroke="#C4EE36" stroke-width="3" stroke-linecap="round" stroke-linejoin="round"/></g></svg>