<svg xmlns="http://www.w3.org/2000/svg" viewBox="0 0 420 280" width="420" height="280"><defs><linearGradient id="g" x1="0" y1="0" x2="0" y2="1"><stop offset="0" stop-color="#2A303B"/><stop offset="1" stop-color="#191C23"/></linearGradient></defs><rect width="420" height="280" fill="url(#g)"/><rect y="248" width="420" height="32" fill="#13161B"/><line x1="0" y1="248" x2="420" y2="248" stroke="#39404D" stroke-width="1.5"/><g transform="translate(187,248) scale(1.25)"><ellipse cx="17.4" cy="2" rx="136.9" ry="5" fill="#000" opacity=".28"/><rect x="-117" y="-4" width="270.8" height="4" rx="2" fill="#33405A"/><line x1="62" y1="-6" x2="96.9" y2="-8.4" stroke="#7A8496" stroke-width="12" stroke-linecap="round"/><line x1="96.9" y1="-8.4" x2="127.8" y2="-10.6" stroke="#7A8496" stroke-width="10" stroke-linecap="round"/><line x1="127.8" y1="-10.6" x2="135.8" y2="-11.2" stroke="#7A8496" stroke-width="9" stroke-linecap="round"/><line x1="0" y1="-6" x2="-50" y2="-6" stroke="#7A8496" stroke-width="18" stroke-linecap="round"/><line x1="-50" y1="-6" x2="-99" y2="-6" stroke="#7A8496" stroke-width="13" stroke-linecap="round"/><line x1="-99" y1="-6" x2="-99" y2="10" stroke="#7A8496" stroke-width="7" stroke-linecap="round"/><line x1="0" y1="-6" x2="62" y2="-6" stroke="#C4EE36" stroke-width="28" stroke-linecap="round"/><line x1="62" y1="-6" x2="70" y2="-6" stroke="#E7EBF1" stroke-width="11" stroke-linecap="round"/><line x1="0" y1="-6" x2="-50" y2="-6" stroke="#E7EBF1" stroke-width="18" stroke-linecap="round"/><line x1="-50" y1="-6" x2="-99" y2="-6" stroke="#E7EBF1" stroke-width="13" stroke-linecap="round"/><line x1="-99" y1="-6" x2="-99" y2="10" stroke="#E7EBF1" stroke-width="7" stroke-linecap="round"/><line x1="62" y1="-6" x2="96.8" y2="-9.7" stroke="#C4EE36" stroke-width="12" stroke-linecap="round"/><line x1="96.8" y1="-9.7" x2="127.6" y2="-12.9" stroke="#E7EBF1" stroke-width="10" stroke-linecap="round"/><line x1="127.6" y1="-12.9" x2="135.6" y2="-13.7" stroke="#E7EBF1" stroke-width="9" stroke-linecap="round"/><circle cx="83" cy="-6" r="13" fill="#E7EBF1"/></g></svg>