<svg xmlns="http://www.w3.org/2000/svg" viewBox="0 0 420 280" width="420" height="280"><defs><linearGradient id="g" x1="0" y1="0" x2="0" y2="1"><stop offset="0" stop-color="#2A303B"/><stop offset="1" stop-color="#191C23"/></linearGradient></defs><rect width="420" height="280" fill="url(#g)"/><rect y="248" width="420" height="32" fill="#13161B"/><line x1="0" y1="248" x2="420" y2="248" stroke="#39404D" stroke-width="1.5"/><g transform="translate(210,248) scale(1.161)"><ellipse cx="0" cy="2" rx="61.8" ry="5" fill="#000" opacity=".28"/><line x1="-9" y1="-105.5" x2="-10.7" y2="-55.6" stroke="#E7EBF1" stroke-width="18" stroke-linecap="round"/><line x1="-10.7" y1="-55.6" x2="-10.7" y2="-6.6" stroke="#E7EBF1" stroke-width="13" stroke-linecap="round"/><line x1="-10.7" y1="-6.6" x2="-19.2" y2="-3.5" stroke="#E7EBF1" stroke-width="7" stroke-linecap="round"/><line x1="9" y1="-105.5" x2="10.7" y2="-55.6" stroke="#E7EBF1" stroke-width="18" stroke-linecap="round"/><line x1="10.7" y1="-55.6" x2="10.7" y2="-6.6" stroke="#E7EBF1" stroke-width="13" stroke-linecap="round"/><line x1="10.7" y1="-6.6" x2="19.2" y2="-3.5" stroke="#E7EBF1" stroke-width="7" stroke-linecap="round"/><path d="M-15,-167.5 L15,-167.5 L9,-105.5 L-9,-105.5 Z" fill="#E7EBF1" stroke="#E7EBF1" stroke-width="14" stroke-linejoin="round"/><line x1="0" y1="-167.5" x2="0" y2="-175.5" stroke="#E7EBF1" stroke-width="11" stroke-linecap="round"/><line x1="-15" y1="-167.5" x2="-16.2" y2="-132.6" stroke="#C4EE36" stroke-width="12" stroke-linecap="round"/><line x1="-16.2" y1="-132.6" x2="-36.4" y2="-120.9" stroke="#E7EBF1" stroke-width="10" stroke-linecap="round"/><line x1="-36.4" y1="-120.9" x2="-43.3" y2="-116.9" stroke="#E7EBF1" stroke-width="9" stroke-linecap="round"/><line x1="15" y1="-167.5" x2="16.2" y2="-132.6" stroke="#C4EE36" stroke-width="12" stroke-linecap="round"/><line x1="16.2" y1="-132.6" x2="36.4" y2="-120.9" stroke="#E7EBF1" stroke-width="10" stroke-linecap="round"/><line x1="36.4" y1="-120.9" x2="43.3" y2="-116.9" stroke="#E7EBF1" stroke-width="9" stroke-linecap="round"/><circle cx="0" cy="-188.5" r="13" fill="#E7EBF1"/><line x1="-36.4" y1="-120.9" x2="36.4" y2="-120.9" stroke="#56B4E9" stroke-width="7" stroke-linecap="round"/><path d="M-10.4,-106.9 Q-24.4,-106.9 -38.4,-106.9" fill="none" stroke="#C4EE36" stroke-width="3" stroke-linecap="round" opacity=".95"/><path d="M-30.3,-110.9 L-38.4,-106.9 L-30.3,-103" fill="none" stroke="#C4EE36" stroke-width="3" stroke-linecap="round" stroke-linejoin="round"/><path d="M10.4,-106.9 Q24.4,-106.9 38.4,-106.9" fill="none" stroke="#C4EE36" stroke-width="3" stroke-linecap="round" opacity=".95"/><path d="M30.3,-103 L38.4,-106.9 L30.3,-110.9" fill="none" stroke="#C4EE36" stroke-width="3" stroke-linecap="round" stroke-linejoin="round"/></g></svg>