<svg xmlns="http://www.w3.org/2000/svg" viewBox="0 0 420 280" width="420" height="280"><defs><linearGradient id="g" x1="0" y1="0" x2="0" y2="1"><stop offset="0" stop-color="#2A303B"/><stop offset="1" stop-color="#191C23"/></linearGradient></defs><rect width="420" height="280" fill="url(#g)"/><rect y="248" width="420" height="32" fill="#13161B"/><line x1="0" y1="248" x2="420" y2="248" stroke="#39404D" stroke-width="1.5"/><g transform="translate(210,248) scale(1.25)"><ellipse cx="0" cy="2" rx="81.7" ry="5" fill="#000" opacity=".28"/><rect x="-40" y="-148" width="80" height="98" rx="10" fill="#2B3242"/><rect x="-46" y="-54" width="92" height="12" rx="5" fill="#4A5466"/><line x1="0" y1="-44" x2="0" y2="0" stroke="#4A5466" stroke-width="8" stroke-linecap="round"/><line x1="-9" y1="-56" x2="-18.4" y2="-30.2" stroke="#E7EBF1" stroke-width="18" stroke-linecap="round"/><line x1="-18.4" y1="-30.2" x2="-20.1" y2="18.8" stroke="#E7EBF1" stroke-width="13" stroke-linecap="round"/><line x1="-20.1" y1="18.8" x2="-28.6" y2="21.9" stroke="#E7EBF1" stroke-width="7" stroke-linecap="round"/><line x1="9" y1="-56" x2="18.4" y2="-30.2" stroke="#E7EBF1" stroke-width="18" stroke-linecap="round"/><line x1="18.4" y1="-30.2" x2="20.1" y2="18.8" stroke="#E7EBF1" stroke-width="13" stroke-linecap="round"/><line x1="20.1" y1="18.8" x2="28.6" y2="21.9" stroke="#E7EBF1" stroke-width="7" stroke-linecap="round"/><path d="M-15,-118 L15,-118 L9,-56 L-9,-56 Z" fill="#E7EBF1" stroke="#E7EBF1" stroke-width="14" stroke-linejoin="round"/><line x1="0" y1="-118" x2="0" y2="-126" stroke="#E7EBF1" stroke-width="11" stroke-linecap="round"/><line x1="-15" y1="-118" x2="-49.9" y2="-115.6" stroke="#C4EE36" stroke-width="12" stroke-linecap="round"/><line x1="-49.9" y1="-115.6" x2="-59.2" y2="-99.5" stroke="#E7EBF1" stroke-width="10" stroke-linecap="round"/><line x1="-59.2" y1="-99.5" x2="-63.2" y2="-92.5" stroke="#E7EBF1" stroke-width="9" stroke-linecap="round"/><line x1="15" y1="-118" x2="49.9" y2="-115.6" stroke="#C4EE36" stroke-width="12" stroke-linecap="round"/><line x1="49.9" y1="-115.6" x2="59.2" y2="-99.5" stroke="#E7EBF1" stroke-width="10" stroke-linecap="round"/><line x1="59.2" y1="-99.5" x2="63.2" y2="-92.5" stroke="#E7EBF1" stroke-width="9" stroke-linecap="round"/><circle cx="0" cy="-139" r="13" fill="#E7EBF1"/><circle cx="-49.91474175909384" cy="-115.55852341895562" r="9" fill="#8994A8"/><circle cx="49.91474175909386" cy="-115.55852341895562" r="9" fill="#8994A8"/><path d="M-49.9,-65.6 Q-37.9,-83.6 -49.9,-101.6" fill="none" stroke="#C4EE36" stroke-width="3" stroke-linecap="round" opacity=".95"/><path d="M-42.2,-97 L-49.9,-101.6 L-48.7,-92.6" fill="none" stroke="#C4EE36" stroke-width="3" stroke-linecap="round" stroke-linejoin="round"/><path d="M49.9,-65.6 Q37.9,-83.6 49.9,-101.6" fill="none" stroke="#C4EE36" stroke-width="3" stroke-linecap="round" opacity=".95"/><path d="M48.7,-92.6 L49.9,-101.6 L42.2,-97" fill="none" stroke="#C4EE36" stroke-width="3" stroke-linecap="round" stroke-linejoin="round"/></g></svg>