<svg xmlns="http://www.w3.org/2000/svg" viewBox="0 0 420 280" width="420" height="280"><defs><linearGradient id="g" x1="0" y1="0" x2="0" y2="1"><stop offset="0" stop-color="#2A303B"/><stop offset="1" stop-color="#191C23"/></linearGradient></defs><rect width="420" height="280" fill="url(#g)"/><rect y="248" width="420" height="32" fill="#13161B"/><line x1="0" y1="248" x2="420" y2="248" stroke="#39404D" stroke-width="1.5"/><g transform="translate(228.4,248) scale(1.25)"><ellipse cx="-22.5" cy="2" rx="119.3" ry="5" fill="#000" opacity=".28"/><rect x="-141.3" y="-4" width="238.7" height="4" rx="2" fill="#33405A"/><line x1="-55.7" y1="-34.5" x2="-87.2" y2="-19.1" stroke="#7A8496" stroke-width="12" stroke-linecap="round"/><line x1="-87.2" y1="-19.1" x2="-115.9" y2="-7.5" stroke="#7A8496" stroke-width="10" stroke-linecap="round"/><line x1="-115.9" y1="-7.5" x2="-123.3" y2="-4.5" stroke="#7A8496" stroke-width="9" stroke-linecap="round"/><line x1="0" y1="-61.6" x2="50" y2="-62.6" stroke="#7F9A26" stroke-width="18" stroke-linecap="round"/><line x1="50" y1="-62.6" x2="64" y2="-15.6" stroke="#7A8496" stroke-width="13" stroke-linecap="round"/><line x1="64" y1="-15.6" x2="79.3" y2="-20.2" stroke="#7A8496" stroke-width="7" stroke-linecap="round"/><line x1="0" y1="-61.6" x2="-55.7" y2="-34.5" stroke="#E7EBF1" stroke-width="28" stroke-linecap="round"/><line x1="-55.7" y1="-34.5" x2="-63.7" y2="-34.5" stroke="#E7EBF1" stroke-width="11" stroke-linecap="round"/><line x1="0" y1="-61.6" x2="49.9" y2="-58.6" stroke="#C4EE36" stroke-width="18" stroke-linecap="round"/><line x1="49.9" y1="-58.6" x2="64" y2="-11.6" stroke="#E7EBF1" stroke-width="13" stroke-linecap="round"/><line x1="64" y1="-11.6" x2="79.3" y2="-16.2" stroke="#E7EBF1" stroke-width="7" stroke-linecap="round"/><line x1="-55.7" y1="-34.5" x2="-87.2" y2="-19.1" stroke="#E7EBF1" stroke-width="12" stroke-linecap="round"/><line x1="-87.2" y1="-19.1" x2="-115.9" y2="-7.5" stroke="#E7EBF1" stroke-width="10" stroke-linecap="round"/><line x1="-115.9" y1="-7.5" x2="-123.3" y2="-4.5" stroke="#E7EBF1" stroke-width="9" stroke-linecap="round"/><circle cx="-76.7" cy="-34.5" r="13" fill="#E7EBF1"/></g></svg>