<svg xmlns="http://www.w3.org/2000/svg" viewBox="0 0 420 280" width="420" height="280"><defs><linearGradient id="g" x1="0" y1="0" x2="0" y2="1"><stop offset="0" stop-color="#2A303B"/><stop offset="1" stop-color="#191C23"/></linearGradient></defs><rect width="420" height="280" fill="url(#g)"/><rect y="248" width="420" height="32" fill="#13161B"/><line x1="0" y1="248" x2="420" y2="248" stroke="#39404D" stroke-width="1.5"/><g transform="translate(215,248) scale(1.1613)"><ellipse cx="-4.3" cy="2" rx="83.8" ry="5" fill="#000" opacity=".28"/><line x1="0" y1="-131.2" x2="-13.1" y2="-98.7" stroke="#7A8496" stroke-width="12" stroke-linecap="round"/><line x1="-13.1" y1="-98.7" x2="16" y2="-88.1" stroke="#7A8496" stroke-width="10" stroke-linecap="round"/><line x1="16" y1="-88.1" x2="23.5" y2="-85.4" stroke="#7A8496" stroke-width="9" stroke-linecap="round"/><line x1="0" y1="-69.2" x2="-18.7" y2="-22.8" stroke="#7F9A26" stroke-width="18" stroke-linecap="round"/><line x1="-18.7" y1="-22.8" x2="-67.6" y2="-19.4" stroke="#7A8496" stroke-width="13" stroke-linecap="round"/><line x1="-67.6" y1="-19.4" x2="-69.3" y2="-3.5" stroke="#7A8496" stroke-width="7" stroke-linecap="round"/><line x1="0" y1="-69.2" x2="0" y2="-131.2" stroke="#E7EBF1" stroke-width="28" stroke-linecap="round"/><line x1="0" y1="-131.2" x2="0" y2="-139.2" stroke="#E7EBF1" stroke-width="11" stroke-linecap="round"/><line x1="0" y1="-69.2" x2="49.5" y2="-62.2" stroke="#C4EE36" stroke-width="18" stroke-linecap="round"/><line x1="49.5" y1="-62.2" x2="46.1" y2="-13.4" stroke="#E7EBF1" stroke-width="13" stroke-linecap="round"/><line x1="46.1" y1="-13.4" x2="62.1" y2="-12.2" stroke="#E7EBF1" stroke-width="7" stroke-linecap="round"/><line x1="0" y1="-131.2" x2="-13.1" y2="-98.7" stroke="#E7EBF1" stroke-width="12" stroke-linecap="round"/><line x1="-13.1" y1="-98.7" x2="16" y2="-88.1" stroke="#E7EBF1" stroke-width="10" stroke-linecap="round"/><line x1="16" y1="-88.1" x2="23.5" y2="-85.4" stroke="#E7EBF1" stroke-width="9" stroke-linecap="round"/><circle cx="0" cy="-152.2" r="13" fill="#E7EBF1"/><path d="M50,-115.2 Q50,-97.2 50,-79.2" fill="none" stroke="#C4EE36" stroke-width="3" stroke-linecap="round" opacity=".95"/><path d="M46.1,-87.3 L50,-79.2 L53.9,-87.3" fill="none" stroke="#C4EE36" stroke-width="3" stroke-linecap="round" stroke-linejoin="round"/></g></svg>