<svg xmlns="http://www.w3.org/2000/svg" viewBox="0 0 420 280" width="420" height="280"><defs><linearGradient id="g" x1="0" y1="0" x2="0" y2="1"><stop offset="0" stop-color="#2A303B"/><stop offset="1" stop-color="#191C23"/></linearGradient></defs><rect width="420" height="280" fill="url(#g)"/><rect y="248" width="420" height="32" fill="#13161B"/><line x1="0" y1="248" x2="420" y2="248" stroke="#39404D" stroke-width="1.5"/><g transform="translate(156.8,248) scale(1.1613)"><ellipse cx="52.1" cy="2" rx="80.1" ry="5" fill="#000" opacity=".28"/><line x1="121.7" y1="0" x2="121.7" y2="-200" stroke="#4A5466" stroke-width="9" stroke-linecap="round"/><line x1="39.9" y1="-96.8" x2="66.7" y2="-74.3" stroke="#7A8496" stroke-width="12" stroke-linecap="round"/><line x1="66.7" y1="-74.3" x2="90.4" y2="-54.4" stroke="#7A8496" stroke-width="10" stroke-linecap="round"/><line x1="90.4" y1="-54.4" x2="96.5" y2="-49.3" stroke="#7A8496" stroke-width="9" stroke-linecap="round"/><line x1="0" y1="-49.3" x2="49.5" y2="-56.3" stroke="#7A8496" stroke-width="18" stroke-linecap="round"/><line x1="49.5" y1="-56.3" x2="98.4" y2="-59.7" stroke="#7A8496" stroke-width="13" stroke-linecap="round"/><line x1="98.4" y1="-59.7" x2="106.4" y2="-73.6" stroke="#7A8496" stroke-width="7" stroke-linecap="round"/><line x1="0" y1="-49.3" x2="39.9" y2="-96.8" stroke="#E7EBF1" stroke-width="28" stroke-linecap="round"/><line x1="39.9" y1="-96.8" x2="45" y2="-103" stroke="#E7EBF1" stroke-width="11" stroke-linecap="round"/><line x1="0" y1="-49.3" x2="49.7" y2="-54.6" stroke="#C4EE36" stroke-width="18" stroke-linecap="round"/><line x1="49.7" y1="-54.6" x2="28.2" y2="-10.5" stroke="#E7EBF1" stroke-width="13" stroke-linecap="round"/><line x1="28.2" y1="-10.5" x2="42.6" y2="-3.5" stroke="#E7EBF1" stroke-width="7" stroke-linecap="round"/><line x1="39.9" y1="-96.8" x2="74.8" y2="-99.3" stroke="#E7EBF1" stroke-width="12" stroke-linecap="round"/><line x1="74.8" y1="-99.3" x2="105.7" y2="-101.4" stroke="#E7EBF1" stroke-width="10" stroke-linecap="round"/><line x1="105.7" y1="-101.4" x2="113.7" y2="-102" stroke="#E7EBF1" stroke-width="9" stroke-linecap="round"/><circle cx="53.4" cy="-112.9" r="13" fill="#E7EBF1"/><path d="M-30,-109.3 Q-30,-89.3 -30,-69.3" fill="none" stroke="#C4EE36" stroke-width="3" stroke-linecap="round" opacity=".95"/><path d="M-33.9,-77.4 L-30,-69.3 L-26.1,-77.4" fill="none" stroke="#C4EE36" stroke-width="3" stroke-linecap="round" stroke-linejoin="round"/></g></svg>