<svg xmlns="http://www.w3.org/2000/svg" viewBox="0 0 420 280" width="420" height="280"><defs><linearGradient id="g" x1="0" y1="0" x2="0" y2="1"><stop offset="0" stop-color="#2A303B"/><stop offset="1" stop-color="#191C23"/></linearGradient></defs><rect width="420" height="280" fill="url(#g)"/><rect y="248" width="420" height="32" fill="#13161B"/><line x1="0" y1="248" x2="420" y2="248" stroke="#39404D" stroke-width="1.5"/><g transform="translate(229.4,248) scale(1.25)"><ellipse cx="-16.1" cy="2" rx="136.5" ry="5" fill="#000" opacity=".28"/><rect x="-152.1" y="-4" width="273" height="4" rx="2" fill="#33405A"/><line x1="-60.2" y1="-14" x2="-95.1" y2="-11.6" stroke="#7A8496" stroke-width="12" stroke-linecap="round"/><line x1="-95.1" y1="-11.6" x2="-126.1" y2="-11.6" stroke="#7A8496" stroke-width="10" stroke-linecap="round"/><line x1="-126.1" y1="-11.6" x2="-134.1" y2="-11.6" stroke="#7A8496" stroke-width="9" stroke-linecap="round"/><line x1="0" y1="-29" x2="48.9" y2="-18.6" stroke="#7A8496" stroke-width="18" stroke-linecap="round"/><line x1="48.9" y1="-18.6" x2="97.2" y2="-10.1" stroke="#7A8496" stroke-width="13" stroke-linecap="round"/><line x1="97.2" y1="-10.1" x2="102.6" y2="-25.1" stroke="#7A8496" stroke-width="7" stroke-linecap="round"/><line x1="0" y1="-29" x2="-60.2" y2="-14" stroke="#E7EBF1" stroke-width="28" stroke-linecap="round"/><line x1="-60.2" y1="-14" x2="-68.2" y2="-14" stroke="#E7EBF1" stroke-width="11" stroke-linecap="round"/><line x1="0" y1="-29" x2="49.2" y2="-20.3" stroke="#C4EE36" stroke-width="18" stroke-linecap="round"/><line x1="49.2" y1="-20.3" x2="97.5" y2="-11.8" stroke="#E7EBF1" stroke-width="13" stroke-linecap="round"/><line x1="97.5" y1="-11.8" x2="103" y2="-26.8" stroke="#E7EBF1" stroke-width="7" stroke-linecap="round"/><line x1="-60.2" y1="-14" x2="-95.1" y2="-11.6" stroke="#E7EBF1" stroke-width="12" stroke-linecap="round"/><line x1="-95.1" y1="-11.6" x2="-126.1" y2="-11.6" stroke="#E7EBF1" stroke-width="10" stroke-linecap="round"/><line x1="-126.1" y1="-11.6" x2="-134.1" y2="-11.6" stroke="#E7EBF1" stroke-width="9" stroke-linecap="round"/><circle cx="-81.2" cy="-14" r="13" fill="#E7EBF1"/><path d="M0,7 Q0,-7 0,-21" fill="none" stroke="#C4EE36" stroke-width="3" stroke-linecap="round" opacity=".95"/><path d="M3.9,-12.9 L0,-21 L-3.9,-12.9" fill="none" stroke="#C4EE36" stroke-width="3" stroke-linecap="round" stroke-linejoin="round"/></g></svg>