<svg xmlns="http://www.w3.org/2000/svg" viewBox="0 0 420 280" width="420" height="280"><defs><linearGradient id="g" x1="0" y1="0" x2="0" y2="1"><stop offset="0" stop-color="#2A303B"/><stop offset="1" stop-color="#191C23"/></linearGradient></defs><rect width="420" height="280" fill="url(#g)"/><rect y="248" width="420" height="32" fill="#13161B"/><line x1="0" y1="248" x2="420" y2="248" stroke="#39404D" stroke-width="1.5"/><g transform="translate(154.1,248) scale(1.25)"><ellipse cx="2" cy="2" rx="96.5" ry="5" fill="#000" opacity=".28"/><line x1="-8.9" y1="-32.7" x2="-63.7" y2="-62.4" stroke="#4A5466" stroke-width="12" stroke-linecap="round"/><line x1="0" y1="-34" x2="-6" y2="0" stroke="#4A5466" stroke-width="8" stroke-linecap="round"/><line x1="-61.5" y1="-65.7" x2="-61.5" y2="0" stroke="#4A5466" stroke-width="7" stroke-linecap="round"/><line x1="10" y1="-10" x2="170" y2="-144" stroke="#3A4356" stroke-width="6" stroke-linecap="round"/><line x1="-51.4" y1="-80.7" x2="-33.9" y2="-50.4" stroke="#7A8496" stroke-width="12" stroke-linecap="round"/><line x1="-33.9" y1="-50.4" x2="-4.8" y2="-39.8" stroke="#7A8496" stroke-width="10" stroke-linecap="round"/><line x1="-4.8" y1="-39.8" x2="2.7" y2="-37" stroke="#7A8496" stroke-width="9" stroke-linecap="round"/><line x1="0" y1="-46" x2="49.2" y2="-55.1" stroke="#7A8496" stroke-width="18" stroke-linecap="round"/><line x1="49.2" y1="-55.1" x2="30" y2="-10" stroke="#7A8496" stroke-width="13" stroke-linecap="round"/><line x1="30" y1="-10" x2="44.7" y2="-3.7" stroke="#7A8496" stroke-width="7" stroke-linecap="round"/><line x1="0" y1="-46" x2="-51.4" y2="-80.7" stroke="#E7EBF1" stroke-width="28" stroke-linecap="round"/><line x1="-51.4" y1="-80.7" x2="-57.5" y2="-85.8" stroke="#E7EBF1" stroke-width="11" stroke-linecap="round"/><line x1="0" y1="-46" x2="38.3" y2="-78.1" stroke="#C4EE36" stroke-width="18" stroke-linecap="round"/><line x1="38.3" y1="-78.1" x2="77.9" y2="-106.9" stroke="#E7EBF1" stroke-width="13" stroke-linecap="round"/><line x1="77.9" y1="-106.9" x2="72.5" y2="-122" stroke="#E7EBF1" stroke-width="7" stroke-linecap="round"/><line x1="-51.4" y1="-80.7" x2="-33.9" y2="-50.4" stroke="#E7EBF1" stroke-width="12" stroke-linecap="round"/><line x1="-33.9" y1="-50.4" x2="-4.8" y2="-39.8" stroke="#E7EBF1" stroke-width="10" stroke-linecap="round"/><line x1="-4.8" y1="-39.8" x2="2.7" y2="-37" stroke="#E7EBF1" stroke-width="9" stroke-linecap="round"/><circle cx="-67.5" cy="-94.2" r="13" fill="#E7EBF1"/><line x1="60.1" y1="-142.9" x2="91" y2="-106.2" stroke="#8994A8" stroke-width="9" stroke-linecap="round"/><path d="M62.3,-52.1 Q77.3,-66.1 92.3,-80.1" fill="none" stroke="#C4EE36" stroke-width="3" stroke-linecap="round" opacity=".95"/><path d="M89,-71.7 L92.3,-80.1 L83.7,-77.5" fill="none" stroke="#C4EE36" stroke-width="3" stroke-linecap="round" stroke-linejoin="round"/></g></svg>